<svg width="30" height="auto" viewBox="0 0 67 66" fill="none" xmlns="http://www.w3.org/2000/svg">
<g filter="url(#filter0_d_552_7)">
<path d="M33.3089 0.131348C37.1235 0.131348 40.7818 1.64669 43.4792 4.34402C46.1765 7.04134 47.6918 10.6997 47.6918 14.5143C47.6918 18.3289 46.1765 21.9873 43.4792 24.6846C40.7818 27.3819 37.1235 28.8973 33.3089 28.8973C29.4943 28.8973 25.8359 27.3819 23.1386 24.6846C20.4413 21.9873 18.9259 18.3289 18.9259 14.5143C18.9259 10.6997 20.4413 7.04134 23.1386 4.34402C25.8359 1.64669 29.4943 0.131348 33.3089 0.131348ZM33.3089 36.0887C49.202 36.0887 62.0748 42.5251 62.0748 50.4717V57.6632H4.54297V50.4717C4.54297 42.5251 17.4157 36.0887 33.3089 36.0887Z" fill="black"/>
<path d="M33.3089 0.631348C36.9909 0.631348 40.522 2.09401 43.1256 4.69757C45.7292 7.30113 47.1918 10.8323 47.1918 14.5143C47.1918 18.1963 45.7292 21.7275 43.1256 24.331C40.522 26.9346 36.9909 28.3973 33.3089 28.3973C29.6269 28.3973 26.0957 26.9346 23.4921 24.331C20.8886 21.7275 19.4259 18.1963 19.4259 14.5143C19.4259 10.8323 20.8886 7.30113 23.4921 4.69757C26.0957 2.09401 29.6269 0.631348 33.3089 0.631348ZM33.3089 36.5887C41.1947 36.5887 48.3064 38.1866 53.4282 40.7474C58.5797 43.3232 61.5748 46.7897 61.5748 50.4717V57.1632H5.04297V50.4717C5.04297 46.7897 8.03809 43.3232 13.1896 40.7474C18.3113 38.1866 25.423 36.5887 33.3089 36.5887Z" stroke="black"/>
</g>
<defs>
<filter id="filter0_d_552_7" x="0.542969" y="0.131348" width="65.5322" height="65.5317" filterUnits="userSpaceOnUse" color-interpolation-filters="sRGB">
<feFlood flood-opacity="0" result="BackgroundImageFix"/>
<feColorMatrix in="SourceAlpha" type="matrix" values="0 0 0 0 0 0 0 0 0 0 0 0 0 0 0 0 0 0 127 0" result="hardAlpha"/>
<feOffset dy="4"/>
<feGaussianBlur stdDeviation="2"/>
<feComposite in2="hardAlpha" operator="out"/>
<feColorMatrix type="matrix" values="0 0 0 0 0 0 0 0 0 0 0 0 0 0 0 0 0 0 0.25 0"/>
<feBlend mode="normal" in2="BackgroundImageFix" result="effect1_dropShadow_552_7"/>
<feBlend mode="normal" in="SourceGraphic" in2="effect1_dropShadow_552_7" result="shape"/>
</filter>
</defs>
</svg>
